<?xml version="1.0" encoding="UTF-8"?>
<svg width="21px" height="18px" viewBox="0 0 21 18" version="1.1" xmlns="http://www.w3.org/2000/svg" xmlns:xlink="http://www.w3.org/1999/xlink">
    <g id="Page-10" stroke="none" stroke-width="1" fill="none" fill-rule="evenodd">
        <g id="schedule_5" transform="translate(-272.000000, -84.000000)" fill="currentColor" fill-rule="nonzero">
            <path d="M277.06066,88.9308351 L277.06066,97.5374369 C277.06066,98.0897216 276.612945,98.5374369 276.06066,98.5374369 C275.508375,98.5374369 275.06066,98.0897216 275.06066,97.5374369 L275.06066,86.4663691 C275.06066,85.9140843 275.508375,85.4663691 276.06066,85.4663691 L287.131728,85.4663691 C287.684013,85.4663691 288.131728,85.9140843 288.131728,86.4663691 C288.131728,87.0186538 287.684013,87.4663691 287.131728,87.4663691 L278.424621,87.4663691 L289.884776,98.9265242 C290.275301,99.3170485 290.275301,99.9502134 289.884776,100.340738 C289.494252,100.731262 288.861087,100.731262 288.470563,100.340738 L277.06066,88.9308351 Z" id="back" transform="translate(282.619165, 93.050000) scale(-1, 1) rotate(-225.000000) translate(-282.619165, -93.050000) "></path>
        </g>
    </g>
</svg>
