<?xml version="1.0" encoding="UTF-8"?>
<svg width="17px" height="17px" viewBox="0 0 17 17" version="1.1" xmlns="http://www.w3.org/2000/svg" xmlns:xlink="http://www.w3.org/1999/xlink">
    <!-- Generator: Sketch 52.4 (67378) - http://www.bohemiancoding.com/sketch -->
    <title>norepeat</title>
    <desc>Created with Sketch.</desc>
    <g id="Page-10" stroke="none" stroke-width="1" fill="none" fill-rule="evenodd">
        <g id="schedule_8" transform="translate(-1008.000000, -260.000000)" fill="currentColor" fill-rule="nonzero">
            <g id="Group-27" transform="translate(1005.000000, 83.000000)">
                <g id="Group-8" transform="translate(3.000000, 177.000000)">
                    <path d="M13.7250534,11.3195125 C14.1873718,10.4702356 14.45,9.49685916 14.45,8.46223068 C14.45,5.15327952 11.7637085,2.4708446 8.45,2.4708446 C7.41814464,2.4708446 6.44712594,2.73094333 5.59910853,3.1890654 L13.7250534,11.3195125 Z M4.14113392,1.73028299 C5.38482418,0.934877531 6.86347963,0.473715906 8.45,0.473715906 C12.868278,0.473715906 16.45,4.0502958 16.45,8.46223068 C16.45,10.0521671 15.9848498,11.5336179 15.183025,12.7782919 L16.7099098,14.3060227 C17.1000587,14.6963608 17.0994505,15.3286164 16.7085512,15.7182053 C16.3176519,16.1077941 15.6844872,16.1071867 15.2943383,15.7168486 L1.29922108,1.71397732 C0.909072137,1.32363924 0.909680402,0.691383558 1.30057968,0.301794731 C1.69147896,-0.0877940955 2.32464364,-0.0871867043 2.71479259,0.303151378 L4.14113392,1.73028299 Z M11.3131011,13.7287817 L12.7428932,15.1554014 C12.7529541,15.1654479 12.763176,15.1752355 12.7735507,15.1847643 C11.5268221,15.9859439 10.0427692,16.4507455 8.45,16.4507455 C6.06061495,16.4507455 3.91588891,15.4047395 2.45,13.7462825 L2.45,16.4507455 L0.45,16.4507455 L0.45,10.4593594 L6.45,10.4593594 L6.45,12.4564881 L3.97778699,12.4564881 C5.07642809,13.6822245 6.67300037,14.4536168 8.45,14.4536168 C9.48681099,14.4536168 10.4621996,14.1910137 11.3131011,13.7287817 Z M3.1736296,5.60736948 C2.71212943,6.45607511 2.45,7.42858504 2.45,8.46223068 L0.45,8.46223068 C0.45,6.87400035 0.914152462,5.394023 1.71439494,4.15017721 C1.72365132,4.16019976 1.73315075,4.17007904 1.74289322,4.17980753 L3.1736296,5.60736948 Z" id="norepeat" transform="translate(8.726062, 8.230373) scale(-1, -1) translate(-8.726062, -8.230373) "></path>
                </g>
            </g>
        </g>
    </g>
</svg>