<?xml version="1.0" encoding="UTF-8"?>
<svg width="16px" height="18px" viewBox="0 0 16 18" version="1.1" xmlns="http://www.w3.org/2000/svg" xmlns:xlink="http://www.w3.org/1999/xlink">
    <!-- Generator: Sketch 52.4 (67378) - http://www.bohemiancoding.com/sketch -->
    <title>notification</title>
    <desc>Created with Sketch.</desc>
    <g id="Page-10" stroke="none" stroke-width="1" fill="none" fill-rule="evenodd">
        <g id="schedule_8" transform="translate(-1153.000000, -259.000000)" fill="currentColor" fill-rule="nonzero">
            <g id="Group-27" transform="translate(1005.000000, 83.000000)">
                <g id="Group-10" transform="translate(148.000000, 176.000000)">
                    <path d="M15.4010706,15 L0,15 C0,14.2117513 4.62592927e-18,13.5450846 1.38777878e-17,13 C0.952026367,12.5675049 1.92834473,11.3532715 2.13793689,9.48269417 L2.54732127,5.97946603 C2.64178704,4.94034261 3.02246898,3.99093625 3.60728037,3.20620976 L5.04581361,4.644743 C4.76812871,5.09262043 4.58932332,5.6081655 4.53910768,6.16053752 L4.12972331,9.66376566 C4.02248438,10.8433938 3.65483152,11.9825951 3.05548685,13 L12.9445131,13 C12.769109,12.7022463 12.6135491,12.3940608 12.4785536,12.077483 L15.4010706,15 Z M5.07472992,1.84652992 C5.65344541,1.48024551 6.304595,1.21994265 7,1.09135452 L7,0.5 C7,0.223857625 7.22385763,0 7.5,0 L8.5,0 C8.77614237,0 9,0.223857625 9,0.5 L9,1.09135452 C11.3707724,1.52973674 13.2271809,3.49898949 13.4526787,5.97946603 L13.8620631,9.48269417 C13.9080617,9.98867827 14.0179434,10.4847451 14.1876786,10.9594786 L11.7350845,8.50688452 L11.4608923,6.16053752 C11.3193398,4.60346004 10.1559931,3.33901526 8.63634258,3.05801496 C8.42422839,3.01933832 8.21211419,3 8,3 C7.78788581,3 7.57577161,3.01933832 7.36365742,3.05801496 C7.07684483,3.1110498 6.80272421,3.19911615 6.54576967,3.31756968 L5.07472992,1.84652992 Z M4.53544443,15 L6.58535285,15 C6.79127106,15.5825962 7.34689059,16 8,16 C8.65310941,16 9.20872894,15.5825962 9.41464715,15 L11.4645556,15 C11.2219407,16.6961471 9.76323595,18 8,18 C6.23676405,18 4.77805926,16.6961471 4.53544443,15 Z M0.5,1.5 C0.905693099,1.1181712 1.54136508,1.12780038 1.93530677,1.52174208 L15.5210932,15.1075285 C15.8999627,15.486398 15.8999627,16.1006668 15.5210932,16.4795363 C15.5141659,16.4864636 15.507134,16.4932857 15.5,16.5 C15.0943069,16.8818288 14.4586349,16.8721996 14.0646932,16.4782579 L0.478906788,2.89247148 C0.100037303,2.51360199 0.100037303,1.89933319 0.478906788,1.52046371 C0.485834133,1.51353636 0.49286601,1.50671434 0.5,1.5 Z" id="notification"></path>
                </g>
            </g>
        </g>
    </g>
</svg>