<?xml version="1.0" encoding="UTF-8"?>
<svg width="16px" height="16px" viewBox="0 0 16 16" version="1.1" xmlns="http://www.w3.org/2000/svg" xmlns:xlink="http://www.w3.org/1999/xlink">
    <!-- Generator: Sketch 52.4 (67378) - http://www.bohemiancoding.com/sketch -->
    <title>print</title>
    <desc>Created with Sketch.</desc>
    <g id="Page-10" stroke="none" stroke-width="1" fill="none" fill-rule="evenodd">
        <g id="schedule_5" transform="translate(-917.000000, -128.000000)" fill="currentColor" fill-rule="nonzero">
            <g id="Group-23" transform="translate(273.000000, 120.000000)">
                <path d="M657,12 C658.656854,12 660,13.3431458 660,15 L660,20 C660,20.5522847 659.552285,21 659,21 L657.4375,21 L657.777946,22.8157115 C657.879726,23.3585368 657.522188,23.8810924 656.979362,23.9828722 C656.918594,23.9942662 656.856901,24 656.795074,24 L647.204926,24 C646.652642,24 646.204926,23.5522847 646.204926,23 C646.204926,22.9381731 646.21066,22.8764794 646.222054,22.8157115 L646.5625,21 L645,21 C644.447715,21 644,20.5522847 644,20 L644,15 C644,13.3431458 645.343146,12 647,12 L647,10 C647,8.8954305 647.895431,8 649,8 L655,8 C656.104569,8 657,8.8954305 657,10 L657,12 Z M647,14 C646.447715,14 646,14.4477153 646,15 L646,19 L646.9375,19 L647.347054,16.8157115 C647.435737,16.3427386 647.848711,16 648.329926,16 L655.670074,16 C656.151289,16 656.564263,16.3427386 656.652946,16.8157115 L657.0625,19 L658,19 L658,15 C658,14.4477153 657.552285,14 657,14 L647,14 Z M649,18 L648.5,22 L655.5,22 L655,18 L649,18 Z M649,10 L649,12 L655,12 L655,10 L649,10 Z" id="print"></path>
            </g>
        </g>
    </g>
</svg>