<?xml version="1.0" encoding="UTF-8"?>
<svg width="16px" height="16px" viewBox="0 0 16 16" version="1.1" xmlns="http://www.w3.org/2000/svg" xmlns:xlink="http://www.w3.org/1999/xlink">
    <!-- Generator: Sketch 52.4 (67378) - http://www.bohemiancoding.com/sketch -->
    <title>settings</title>
    <desc>Created with Sketch.</desc>
    <g id="Page-10" stroke="none" stroke-width="1" fill="none" fill-rule="evenodd">
        <g id="schedule_8" transform="translate(-956.000000, -86.000000)" fill="currentColor">
            <path d="M964,98.0795512 C961.747068,98.0795512 959.920449,96.2529322 959.920449,94 C959.920449,91.7470678 961.747068,89.9204488 964,89.9204488 C966.252932,89.9204488 968.079551,91.7470678 968.079551,94 C968.079551,96.2529322 966.252932,98.0795512 964,98.0795512 M970.119327,94 C970.119327,93.9704233 970.115247,93.9408465 970.115247,93.9112698 L972,93.563488 L971.630801,91.5573687 L969.741968,91.9061703 C969.422743,91.0321265 968.913819,90.2508924 968.259052,89.6155023 L969.348292,88.0346762 L967.669556,86.8781234 L966.579296,88.4589495 C965.795003,88.0917899 964.921979,87.8806731 964,87.8806731 C963.970423,87.8806731 963.940847,87.8847527 963.91127,87.8847527 L963.563488,86 L961.557369,86.3702193 L961.90515,88.2580316 C961.032126,88.5772565 960.250892,89.0861805 959.615502,89.7409485 L958.034676,88.6517083 L956.878123,90.3304437 L958.45895,91.4207037 C958.09179,92.2049975 957.880673,93.0780214 957.880673,94 C957.880673,94.0295767 957.884753,94.0591535 957.884753,94.0887302 L956,94.436512 L956.369199,96.4426313 L958.258032,96.0938297 C958.577257,96.9678735 959.086181,97.7491076 959.740948,98.3844977 L958.651708,99.9653238 L960.330444,101.121877 L961.420704,99.5410505 C962.204997,99.9082101 963.078021,100.119327 964,100.119327 C964.029577,100.119327 964.059153,100.115247 964.08873,100.115247 L964.436512,102 L966.442631,101.629781 L966.09485,99.7419684 C966.967874,99.4227435 967.749108,98.9138195 968.384498,98.2590515 L969.965324,99.3482917 L971.121877,97.6695563 L969.54105,96.5792963 C969.90821,95.7950025 970.119327,94.9219786 970.119327,94" id="settings"></path>
        </g>
    </g>
</svg>