<?xml version="1.0" encoding="UTF-8"?>
<svg width="16px" height="16px" viewBox="0 0 16 16" version="1.1" xmlns="http://www.w3.org/2000/svg" xmlns:xlink="http://www.w3.org/1999/xlink">
    <!-- Generator: Sketch 52.4 (67378) - http://www.bohemiancoding.com/sketch -->
    <title>share</title>
    <desc>Created with Sketch.</desc>
    <g id="Page-10" stroke="none" stroke-width="1" fill="none" fill-rule="evenodd">
        <g id="schedule_5" transform="translate(-881.000000, -128.000000)" fill="currentColor" fill-rule="nonzero">
            <g id="Group-23" transform="translate(273.000000, 120.000000)">
                <path d="M622,10.4142136 L610,10.4142136 L610,13.4142136 C610,13.9664983 609.552285,14.4142136 609,14.4142136 C608.447715,14.4142136 608,13.9664983 608,13.4142136 L608,10.4142136 C608,9.30964406 608.895431,8.41421356 610,8.41421356 L622,8.41421356 C623.104569,8.41421356 624,9.30964406 624,10.4142136 L624,13.4142136 C624,13.9664983 623.552285,14.4142136 623,14.4142136 C622.447715,14.4142136 622,13.9664983 622,13.4142136 L622,10.4142136 Z M617,20.6568542 L618.606602,19.0502525 C618.997126,18.6597282 619.630291,18.6597282 620.020815,19.0502525 C620.41134,19.4407768 620.41134,20.0739418 620.020815,20.4644661 L616.778175,23.7071068 C616.38765,24.0976311 615.754485,24.0976311 615.363961,23.7071068 C614.973437,23.3165825 614.973437,22.6834175 615.363961,22.2928932 L615.424639,22.2322153 C615.587355,22.3468756 615.785814,22.4142136 616,22.4142136 C616.250564,22.4142136 616.479605,22.3220597 616.655077,22.1697959 L616.778175,22.2928932 C617.168699,22.6834175 617.168699,23.3165825 616.778175,23.7071068 C616.38765,24.0976311 615.754485,24.0976311 615.363961,23.7071068 L612.12132,20.4644661 C611.730796,20.0739418 611.730796,19.4407768 612.12132,19.0502525 C612.511845,18.6597282 613.14501,18.6597282 613.535534,19.0502525 L615,20.5147186 L615,14.4142136 C615,13.8619288 615.447715,13.4142136 616,13.4142136 C616.552285,13.4142136 617,13.8619288 617,14.4142136 L617,20.6568542 Z" id="share" transform="translate(616.000000, 16.207107) scale(1, -1) translate(-616.000000, -16.207107) "></path>
            </g>
        </g>
    </g>
</svg>