<?xml version="1.0" encoding="UTF-8"?>
<svg width="12px" height="14px" viewBox="0 0 12 14" version="1.1" xmlns="http://www.w3.org/2000/svg" xmlns:xlink="http://www.w3.org/1999/xlink">
    <!-- Generator: Sketch 52.4 (67378) - http://www.bohemiancoding.com/sketch -->
    <title>user</title>
    <desc>Created with Sketch.</desc>
    <g id="Page-10" stroke="none" stroke-width="1" fill="none" fill-rule="evenodd">
        <g id="schedule_8" transform="translate(-789.000000, -248.000000)" fill="currentColor" fill-rule="nonzero">
            <path d="M796.154738,253.831004 C796.381296,253.321911 796.500999,252.621694 796.500999,251.882597 C796.500999,250.403818 796.091439,249.779449 795.039754,249.779449 C793.941906,249.779449 793.446905,250.470311 793.446905,251.882597 C793.446905,252.606959 793.595342,253.328398 793.862651,253.848431 C794.813987,255.217921 795.265331,255.214182 796.154738,253.831004 Z M792.374132,254.751616 C791.938959,253.941718 791.720678,252.908373 791.720678,251.882597 C791.720678,249.584145 792.855713,248 795.039754,248 C797.22038,248 798.227226,249.534923 798.227226,251.882597 C798.227226,252.893688 798.054159,253.872512 797.68574,254.656046 L797.631046,254.75552 C796.041819,257.256351 794.109433,257.28311 792.425156,254.835253 L792.374132,254.751616 Z M793.862651,256.346036 L793.301051,257.536332 C792.260578,257.800737 791.285058,258.244471 791.131546,258.435778 C790.764052,258.893751 790.726227,258.990039 790.726227,259.436449 C790.726227,259.793056 792.538915,260.220551 795.044363,260.220551 C797.362596,260.220551 799.273773,259.73288 799.273773,259.436449 C799.273773,258.983357 799.184527,258.717956 798.956957,258.426173 C798.883392,258.33185 797.801695,257.843677 796.785413,257.565924 L796.277243,256.310016 C795.504426,256.682147 794.6451,256.700308 793.862651,256.346036 Z M792.463931,255.551883 L792.769026,253.711853 L793.963451,255.114937 C794.606591,255.87043 795.444437,255.849963 796.086484,255.112249 L797.382922,253.622637 L797.587259,255.612754 C797.599548,255.732434 797.622175,255.851491 797.655446,255.970367 C798.864939,256.343994 799.955232,256.866202 800.3023,257.3112 C800.778273,257.921477 801,258.580855 801,259.436449 C801,261.366622 798.517798,262 795.044363,262 C791.309141,262 789,261.455423 789,259.436449 C789,258.548864 789.191289,258.061921 789.801402,257.301594 C790.207496,256.795517 791.212488,256.298852 792.385587,255.947488 C792.417602,255.805797 792.443705,255.673865 792.463931,255.551883 Z" id="user"></path>
        </g>
    </g>
</svg>